<?xml version="1.0" encoding="UTF-8"?>
<!DOCTYPE svg PUBLIC "-//W3C//DTD SVG 1.1//EN" "http://www.w3.org/Graphics/SVG/1.1/DTD/svg11.dtd">
<svg xmlns="http://www.w3.org/2000/svg" version="1.1" width="150px" height="150px" style="shape-rendering:geometricPrecision; text-rendering:geometricPrecision; image-rendering:optimizeQuality; fill-rule:evenodd; clip-rule:evenodd" xmlns:xlink="http://www.w3.org/1999/xlink">
<g><path style="opacity:1" fill="#fefefe" d="M -0.5,-0.5 C 49.5,-0.5 99.5,-0.5 149.5,-0.5C 149.5,49.5 149.5,99.5 149.5,149.5C 99.5,149.5 49.5,149.5 -0.5,149.5C -0.5,99.5 -0.5,49.5 -0.5,-0.5 Z"/></g>
<g><path style="opacity:1" fill="#8168ac" d="M 44.5,67.5 C 45.6602,69.2027 44.9935,69.8693 42.5,69.5C 37.3502,67.8439 33.1835,64.8439 30,60.5C 29.3333,56.8333 29.3333,53.1667 30,49.5C 40.4578,33.0373 54.9578,21.8706 73.5,16C 84.2367,13.4014 88.0701,17.2347 85,27.5C 84.0922,29.4386 82.5922,30.4386 80.5,30.5C 79.8144,26.713 80.8144,23.5463 83.5,21C 63.0312,23.3261 46.5312,32.8261 34,49.5C 32.2753,58.5975 35.7753,64.5975 44.5,67.5 Z"/></g>
<g><path style="opacity:1" fill="#c2b7d7" d="M 121.5,76.5 C 122.568,75.5655 123.901,75.2322 125.5,75.5C 125.737,76.791 125.404,77.791 124.5,78.5C 124.179,76.9519 123.179,76.2852 121.5,76.5 Z"/></g>
<g><path style="opacity:1" fill="#8972b1" d="M 44.5,67.5 C 59.5325,73.2654 74.0325,80.2654 88,88.5C 98.6522,83.2071 109.819,79.2071 121.5,76.5C 123.179,76.2852 124.179,76.9519 124.5,78.5C 116.714,80.197 109.047,82.3636 101.5,85C 97.5544,86.3061 93.8878,88.1394 90.5,90.5C 99.3336,99.9143 99.8336,109.914 92,120.5C 85.3131,127.365 77.4798,132.365 68.5,135.5C 62.8623,136.22 57.1956,136.553 51.5,136.5C 43.5187,132.095 42.352,126.095 48,118.5C 58.5585,106.771 70.7251,97.1044 84.5,89.5C 79.3318,86.0815 73.9984,82.9148 68.5,80C 59.5523,76.7506 50.8856,73.2506 42.5,69.5C 44.9935,69.8693 45.6602,69.2027 44.5,67.5 Z"/></g>
<g><path style="opacity:1" fill="#fcfbfd" d="M 85.5,91.5 C 93.2322,95.8103 96.0656,102.477 94,111.5C 83.7327,129.577 68.566,136.41 48.5,132C 46.7657,127.051 47.5991,122.551 51,118.5C 61.2098,107.67 72.7098,98.6697 85.5,91.5 Z"/></g>
<g><path style="opacity:1" fill="#d5cde4" d="M 68.5,135.5 C 68.0825,136.222 67.4158,136.722 66.5,137C 61.3158,137.816 56.3158,137.65 51.5,136.5C 57.1956,136.553 62.8623,136.22 68.5,135.5 Z"/></g>
</svg>
